<svg xmlns="http://www.w3.org/2000/svg" viewBox="0 0 16 16" shape-rendering="crispEdges">
  <!-- Grasblock im Pixel-Stil -->
  <rect width="16" height="16" fill="#79553a"/>
  <rect x="0" y="0" width="16" height="4" fill="#7cbd4b"/>
  <rect x="0" y="4" width="2" height="1" fill="#7cbd4b"/>
  <rect x="3" y="4" width="3" height="1" fill="#7cbd4b"/>
  <rect x="8" y="4" width="2" height="1" fill="#7cbd4b"/>
  <rect x="12" y="4" width="3" height="1" fill="#7cbd4b"/>
  <rect x="1" y="1" width="2" height="1" fill="#94d65f"/>
  <rect x="6" y="2" width="3" height="1" fill="#94d65f"/>
  <rect x="12" y="1" width="2" height="1" fill="#94d65f"/>
  <rect x="2" y="7" width="2" height="2" fill="#5e4025"/>
  <rect x="9" y="8" width="2" height="1" fill="#5e4025"/>
  <rect x="5" y="11" width="2" height="2" fill="#5e4025"/>
  <rect x="12" y="12" width="2" height="1" fill="#5e4025"/>
  <rect x="7" y="6" width="1" height="1" fill="#8f6844"/>
  <rect x="13" y="7" width="2" height="1" fill="#8f6844"/>
  <rect x="1" y="12" width="2" height="1" fill="#8f6844"/>
  <rect x="9" y="13" width="1" height="1" fill="#8f6844"/>
</svg>
